<svg width="40" height="40" viewBox="0 0 40 40" fill="none" xmlns="http://www.w3.org/2000/svg">
  <path d="M32 32H8C6.89543 32 6 31.1046 6 30V14C6 12.8954 6.89543 12 8 12H12L14 9H26L28 12H32C33.1046 12 34 12.8954 34 14V30C34 31.1046 33.1046 32 32 32Z" stroke="#94A3B8" stroke-width="2" stroke-linecap="round" stroke-linejoin="round"/>
  <path d="M20 27C23.3137 27 26 24.3137 26 21C26 17.6863 23.3137 15 20 15C16.6863 15 14 17.6863 14 21C14 24.3137 16.6863 27 20 27Z" stroke="#94A3B8" stroke-width="2" stroke-linecap="round" stroke-linejoin="round"/>
</svg> 